<?xml version="1.0" standalone="no"?>
<!DOCTYPE svg PUBLIC "-//W3C//DTD SVG 20010904//EN"
 "http://www.w3.org/TR/2001/REC-SVG-20010904/DTD/svg10.dtd">
<svg version="1.0" xmlns="http://www.w3.org/2000/svg"
 width="229.000000pt" height="229.000000pt" viewBox="0 0 229.000000 229.000000"
 preserveAspectRatio="xMidYMid meet">

<g transform="translate(0.000000,229.000000) scale(0.100000,-0.100000)"
fill="#000000" stroke="none">
<path d="M1085 1833 c-245 -22 -446 -146 -535 -327 -29 -58 -42 -99 -46 -146
-12 -120 39 -249 132 -341 l41 -41 -22 -71 c-37 -115 -51 -226 -36 -289 24
-109 77 -158 170 -158 115 0 194 84 256 274 l37 113 79 1 c437 9 719 345 557
665 -41 82 -81 130 -153 185 -129 97 -318 151 -480 135z m244 -168 c115 -54
198 -141 231 -244 28 -87 24 -144 -17 -227 -34 -70 -98 -128 -188 -169 -160
-75 -329 -74 -482 0 -41 21 -53 31 -48 44 16 43 76 130 132 191 61 66 158 138
170 127 3 -4 -7 -21 -21 -38 -54 -64 -147 -282 -128 -301 5 -5 37 -11 73 -14
l64 -6 23 83 c34 128 92 241 153 300 42 41 51 54 42 68 -17 28 -77 42 -135 31
-146 -28 -301 -151 -415 -328 -19 -29 -38 -50 -44 -47 -5 4 -22 30 -37 58 -23
45 -27 64 -27 137 0 74 4 92 28 139 58 109 161 190 288 226 37 10 86 14 155
12 93 -3 107 -7 183 -42z m-474 -775 c33 -12 61 -23 63 -24 4 -5 -56 -183 -72
-213 -37 -72 -92 -83 -114 -23 -17 50 -5 193 24 279 5 14 5 14 99 -19z"/>
</g>
</svg>
